<svg xmlns="http://www.w3.org/2000/svg" viewBox="0 0 397.5 292.5">
  <defs>
    <style>
      .cls-1 {
        fill: #d1e6f3;
      }

      .cls-2 {
        fill: #fff;
      }

      .cls-3, .cls-7 {
        fill: #3c94de;
      }

      .cls-4, .cls-8, .cls-9 {
        fill: none;
        stroke: #3c94de;
        stroke-linecap: round;
        stroke-linejoin: round;
      }

      .cls-4, .cls-7, .cls-8, .cls-9 {
        stroke-miterlimit: 10;
      }

      .cls-4 {
        stroke-width: 7px;
      }

      .cls-5 {
        fill: #e4f2fb;
      }

      .cls-6 {
        fill: #aad3f1;
      }

      .cls-7 {
        stroke: #4e98d8;
        stroke-width: 3px;
      }

      .cls-8 {
        stroke-width: 5px;
      }

      .cls-9 {
        stroke-width: 6px;
      }

      .cls-10, .cls-11 {
        fill: #5399d6;
        font-family: SegoeUI, Segoe UI;
      }

      .cls-10 {
        font-size: 30px;
      }

      .cls-11 {
        font-size: 25px;
      }
    </style>
  </defs>
  <g id="Group_1" data-name="Group 1" transform="translate(-2612.5 781)">
    <g id="Group_15" data-name="Group 15" transform="translate(2404 -984)">
      <g id="cloud_1_copy_15" data-name="cloud (1) copy 15" transform="translate(220 203)">
        <path id="Path_25" data-name="Path 25" class="cls-1" d="M72.723,81.547,33.779,91.588l-23,23.468L0,156.4s1.218,13.246,3.519,20.083S14.21,198.631,14.21,198.631s13.425,14.883,21.979,20.017S59.811,226,59.811,226H314.12s18.826-8.607,22.4-10.7c9.839-5.772,13.868-12.908,16.567-10.9C358.6,208.517,381,151.419,381,151.419l-6.825-36.362L353.082,81.547S342.285,71.4,336.515,68.6s-25.94-7.721-25.94-7.721H281.766s1.479-8.109,0-10.511-19.8-21.648-19.8-21.648L220.519,0H158.7L106.5,25.481Z" transform="translate(3 6)"/>
        <path id="Shape_Copy_3" data-name="Shape Copy 3" class="cls-2" d="M318.665,82.363a79.716,79.716,0,0,0-56.878-23.428,53.636,53.636,0,0,0-7.657.366,101.629,101.629,0,0,0-158.6-34.775C79.484,38.436,67.1,53.025,62,74.988c-16.407,1.83-32.672,7.864-43.61,18.846C5.628,106.646,0,129.584,0,149.351A70.473,70.473,0,0,0,70.733,220H261.787a81.257,81.257,0,0,0,56.878-23.428A80.357,80.357,0,0,0,342,139.468,81.912,81.912,0,0,0,318.665,82.363Z" transform="translate(6 15)"/>
        <path id="Shape" class="cls-3" d="M299.074,235H75.215A75.242,75.242,0,0,1,0,159.9,74.807,74.807,0,0,1,21.489,107.39a75.048,75.048,0,0,1,52-22.577A117.3,117.3,0,0,1,186.392,0a118.6,118.6,0,0,1,31.694,4.289,116.444,116.444,0,0,1,53.121,31.8,118.946,118.946,0,0,1,18.737,25.834,82.357,82.357,0,0,1,9.119-.536A86.958,86.958,0,0,1,386,148.171a85.929,85.929,0,0,1-6.831,33.769,87.085,87.085,0,0,1-18.646,27.6,87.247,87.247,0,0,1-27.639,18.624A86.3,86.3,0,0,1,299.074,235ZM71.372,91.2h0c-35.474,0-65.443,32-65.443,69.874,0,36.769,30.37,67.832,66.318,67.832H301c42.964,0,79.26-36.389,79.26-79.463,0-44.154-35.3-81.456-77.087-81.456A76.7,76.7,0,0,0,291.347,69a5.818,5.818,0,0,1-.875.066,6,6,0,0,1-5.353-3.391C267.429,29.082,229.5,6.35,186.125,6.35c-35.459,0-70.643,17.849-89.636,45.473-7.844,11.409-14.575,26.7-16.551,34.9A6.214,6.214,0,0,1,74,91.347L71.372,91.2Z"/>
        <path id="Oval_14" data-name="Oval 14" class="cls-4" d="M67,0C28.81,7.448,0,40.882,0,81" transform="translate(223 66)"/>
        <path id="Oval_14_Copy" data-name="Oval 14 Copy" class="cls-4" d="M51,6A65.632,65.632,0,0,0,0,4.384" transform="translate(115.795 74.716) rotate(-39)"/>
        <circle id="Oval_15" data-name="Oval 15" class="cls-3" cx="3.5" cy="3.5" r="3.5" transform="translate(220 154)"/>
      </g>
      <g id="startup_1_" data-name="startup (1)" transform="translate(348 330)">
        <path id="Path_97" data-name="Path 97" class="cls-5" d="M0,115.843H75.984V93.757L64.07,79.623,61.6,31.8,37.992,0,17.086,24.325,12.62,35.755V73.1L5.248,89.574,0,105.462Z" transform="translate(25.043 5.088)"/>
        <path id="Shape-2" data-name="Shape" class="cls-3" d="M34.167,0A13.715,13.715,0,0,0,21.98,7.486a16.808,16.808,0,0,0-4.9-.736A17,17,0,0,0,0,23.625,3.4,3.4,0,0,0,3.417,27a3.4,3.4,0,0,0,3.417-3.375,10.2,10.2,0,0,1,15.478-8.65,3.445,3.445,0,0,0,3.225.145,3.376,3.376,0,0,0,1.91-2.572,6.813,6.813,0,0,1,6.721-5.8,6.742,6.742,0,0,1,6.755,6.143A3.386,3.386,0,0,0,43.5,15.867a3.434,3.434,0,0,0,3.69-1.434,17.175,17.175,0,0,1,28.625,0,3.437,3.437,0,0,0,3.69,1.434,3.386,3.386,0,0,0,2.576-2.973A6.742,6.742,0,0,1,88.833,6.75a6.813,6.813,0,0,1,6.721,5.8,3.375,3.375,0,0,0,1.91,2.572,3.444,3.444,0,0,0,3.225-.145,10.2,10.2,0,0,1,15.478,8.65,3.417,3.417,0,0,0,6.833,0A17,17,0,0,0,105.916,6.75a16.806,16.806,0,0,0-4.9.736A13.693,13.693,0,0,0,77.462,6.038a24.121,24.121,0,0,0-31.926,0A13.581,13.581,0,0,0,34.167,0Z" transform="translate(0 137)"/>
        <circle id="Oval_27" data-name="Oval 27" class="cls-6" cx="9.5" cy="9.5" r="9.5" transform="translate(51 46)"/>
        <path id="Shape-3" data-name="Shape" class="cls-3" d="M13.5,27A13.5,13.5,0,1,1,27,13.5,13.515,13.515,0,0,1,13.5,27Zm0-20.251A6.75,6.75,0,1,0,20.25,13.5,6.758,6.758,0,0,0,13.5,6.749Z" transform="translate(48 41)"/>
        <path id="Shape-4" data-name="Shape" class="cls-3" d="M0,3.4V30.6A3.452,3.452,0,0,0,3.5,34,3.452,3.452,0,0,0,7,30.6V3.4A3.452,3.452,0,0,0,3.5,0,3.452,3.452,0,0,0,0,3.4Z" transform="translate(58 96)"/>
        <path id="Shape-5" data-name="Shape" class="cls-3" d="M0,119.732a3.421,3.421,0,0,0,3.417,3.423h10.25v3.423a3.417,3.417,0,1,0,6.833,0v-3.423h6.833a3.423,3.423,0,0,0,0-6.845H6.833v-3.423c0-10.087,3.447-14.313,7.1-18.79,3.229-3.964,6.57-8.064,6.57-15.436V44.434c0-11.949,5.613-17.887,6.041-18.346L41,8.708,55.651,26.3c.236.246,5.849,6.185,5.849,18.133V78.66c0,7.373,3.342,11.473,6.57,15.436,3.649,4.477,7.1,8.7,7.1,18.79v3.423h-20.5a3.423,3.423,0,0,0,0,6.845H61.5v3.423a3.417,3.417,0,1,0,6.833,0v-3.423h10.25A3.421,3.421,0,0,0,82,119.732v-6.845c0-12.527-4.787-18.4-8.634-23.12-2.921-3.583-5.033-6.174-5.033-11.107V44.433c0-14.936-7.513-22.634-7.626-22.726L43.624,1.17a3.526,3.526,0,0,0-5.248,0L21.5,21.478c-.321.322-7.834,8.019-7.834,22.956V78.66c0,4.932-2.112,7.523-5.033,11.107C4.787,94.487,0,100.36,0,112.887v6.845Z" transform="translate(21)"/>
      </g>
      <g id="cloud_1_copy_16" data-name="cloud (1) copy 16" transform="translate(364 400) rotate(180)">
        <path id="Path_25-2" data-name="Path 25" class="cls-1" d="M-27.8,32.456l14.752,4.372,9.089,11.386L0,62.418-6.964,76.881-21.024,90h-103.39s-14.618-7.117-15.035-7.659S-151,62.418-151,62.418l3.15-16.626,8.4-13.337,16.928-8.228h11.473l7.887-12.8L-86.657,0h24.62l20.786,10.142Z" transform="translate(2 -2) rotate(-180)"/>
        <path id="Shape_Copy_3-2" data-name="Shape Copy 3" class="cls-2" d="M-127.652,32.945a31.957,31.957,0,0,1,22.785-9.371,21.517,21.517,0,0,1,3.067.146,40.632,40.632,0,0,1,13.729-16.4A40.495,40.495,0,0,1-64.849,0,41.02,41.02,0,0,1-38.267,9.81c6.426,5.564,11.07,10.944,13.115,19.729,6.572.732,12.915,3.331,17.3,7.724C-2.743,42.388,0,51.834,0,59.74A28.5,28.5,0,0,1-8.325,79.8,28.592,28.592,0,0,1-28.335,88h-76.533a32.575,32.575,0,0,1-22.785-9.371A32.119,32.119,0,0,1-137,55.787,32.74,32.74,0,0,1-127.652,32.945Z" transform="translate(2 -6) rotate(-180)"/>
        <path id="Shape-6" data-name="Shape" class="cls-7" d="M-119.319,94h89.312A30.058,30.058,0,0,0,0,63.96a29.884,29.884,0,0,0-8.573-21,30,30,0,0,0-9.317-6.479,29.7,29.7,0,0,0-11.428-2.552,46.982,46.982,0,0,0-6.523-13.767A46.744,46.744,0,0,0-46.132,9.437,46.647,46.647,0,0,0-59.277,2.479,46.883,46.883,0,0,0-74.363,0a46.815,46.815,0,0,0-24.1,6.64,47.088,47.088,0,0,0-17.21,18.13,32.721,32.721,0,0,0-3.638-.214A34.738,34.738,0,0,0-154,59.269a34.448,34.448,0,0,0,2.725,13.507,34.663,34.663,0,0,0,7.439,11.041,34.63,34.63,0,0,0,11.027,7.45A34.355,34.355,0,0,0-119.319,94ZM-28.548,36.52A25.418,25.418,0,0,1-9.932,44.577,28.3,28.3,0,0,1-2.381,65.22c-.847,14.455-13.326,26.667-27.25,26.667h-91.893a31.335,31.335,0,0,1-31.091-31.5A31.327,31.327,0,0,1-121.524,28.9a31.17,31.17,0,0,1,4.78.406,2.372,2.372,0,0,0,.353.026,2.427,2.427,0,0,0,2.164-1.361A44.664,44.664,0,0,1-74.483,2.748c13.978,0,26.609,6.27,35.566,17.654,2.829,3.6,6.14,11.166,6.906,14.32a2.508,2.508,0,0,0,2.4,1.857Z" transform="rotate(-180)"/>
        <path id="Oval_14-2" data-name="Oval 14" class="cls-8" d="M-28,0A32.426,32.426,0,0,1,0,32" transform="translate(88 -28) rotate(-180)"/>
        <path id="Oval_14_Copy-2" data-name="Oval 14 Copy" class="cls-9" d="M-20,2A29.757,29.757,0,0,1-9.243,0,29.792,29.792,0,0,1,0,1.461" transform="translate(46.599 -29.516) rotate(-141)"/>
        <circle id="Oval_15-2" data-name="Oval 15" class="cls-3" cx="2.5" cy="2.5" r="2.5" transform="translate(73 -15) rotate(-180)"/>
      </g>
      <g id="cloud_1_copy_17" data-name="cloud (1) copy 17" transform="translate(573 418) rotate(180)">
        <path id="Path_25-3" data-name="Path 25" class="cls-1" d="M-22.644,26.325l12.016,3.546,7.4,9.235L0,50.628-5.672,62.359-17.126,73h-84.218s-11.908-5.773-12.247-6.212S-123,50.628-123,50.628l2.566-13.486,6.842-10.817L-99.8,19.652h9.345L-84.032,9.27-70.588,0h20.055L-33.6,8.226Z" transform="translate(2 -2) rotate(-180)"/>
        <path id="Shape_Copy_3-3" data-name="Shape Copy 3" class="cls-2" d="M-103.426,26.581A25.947,25.947,0,0,1-84.966,19.02a17.506,17.506,0,0,1,2.485.118A32.817,32.817,0,0,1-71.357,5.907,32.905,32.905,0,0,1-52.542,0,33.318,33.318,0,0,1-31,7.915c5.207,4.489,8.969,8.83,10.626,15.918A23.56,23.56,0,0,1-6.364,30.065C-2.222,34.2,0,41.82,0,48.2A22.946,22.946,0,0,1-6.745,64.384,23.216,23.216,0,0,1-22.957,71H-84.966a26.449,26.449,0,0,1-18.461-7.561A25.859,25.859,0,0,1-111,45.01,26.359,26.359,0,0,1-103.426,26.581Z" transform="translate(2 -5) rotate(-180)"/>
        <path id="Shape-7" data-name="Shape" class="cls-7" d="M-96.851,76h72.493A24.35,24.35,0,0,0,0,51.712,24.113,24.113,0,0,0-6.959,34.73a24.246,24.246,0,0,0-16.839-7.3A37.917,37.917,0,0,0-29.093,16.3,37.858,37.858,0,0,0-37.445,7.63,37.915,37.915,0,0,0-48.115,2,38.19,38.19,0,0,0-60.36,0,38.111,38.111,0,0,0-79.924,5.368,38.135,38.135,0,0,0-93.893,20.027a26.732,26.732,0,0,0-2.953-.174A28.142,28.142,0,0,0-125,47.919a27.76,27.76,0,0,0,2.212,10.921,28.02,28.02,0,0,0,6.038,8.927,28.115,28.115,0,0,0,8.95,6.023A27.979,27.979,0,0,0-96.851,76Zm73.679-46.472A20.669,20.669,0,0,1-8.03,36.075a22.832,22.832,0,0,1,6.1,16.657c-.686,11.687-10.815,21.56-22.118,21.56H-98.64a25.383,25.383,0,0,1-25.236-25.471A25.377,25.377,0,0,1-98.64,23.362a25.457,25.457,0,0,1,3.88.328,1.928,1.928,0,0,0,.288.022,1.972,1.972,0,0,0,1.756-1.1A36.262,36.262,0,0,1-60.457,2.221,36.26,36.26,0,0,1-31.588,16.5a40.884,40.884,0,0,1,5.605,11.578,2.037,2.037,0,0,0,1.949,1.5Z" transform="rotate(-180)"/>
        <path id="Oval_14-3" data-name="Oval 14" class="cls-8" d="M-23,0A26.444,26.444,0,0,1,0,26" transform="translate(71 -23) rotate(-180)"/>
        <path id="Oval_14_Copy-3" data-name="Oval 14 Copy" class="cls-9" d="M-16,2A19.672,19.672,0,0,1-7.395,0,19.526,19.526,0,0,1,0,1.461" transform="translate(38.154 -24.257) rotate(-141)"/>
        <circle id="Oval_15-3" data-name="Oval 15" class="cls-3" cx="2" cy="2" r="2" transform="translate(59 -12) rotate(-180)"/>
      </g>
    </g>
    <text id="_404" data-name="404" class="cls-10" transform="translate(2885 -648)"><tspan x="0" y="32">404</tspan></text>
    <text id="Page_not_found" data-name="Page not found" class="cls-11" transform="translate(2669 -686)"><tspan x="0" y="27">Page not found</tspan></text>
  </g>
</svg>
