<svg xmlns="http://www.w3.org/2000/svg" width="104" height="58">
    <path fill="#ECF6FC" fill-rule="evenodd" d="M104 19.355c-.072-6.663-3.303-11.227-10.98-16.14C85.734-1.448 79.246.541 74.054.189c-5.192-.352-16.087-.613-28.948 3.026C33.037 6.63 29.732 9.71 24.144 14.311c-5.588 4.601-11.956 6.564-16.874 14.004C2.353 35.755.792 43.624.187 46.589c-.604 2.966-.18 9.407 7.986 11.096 8.166 1.688 30.035-3.956 40.926-7.061 10.891-3.105 25.867.948 39.928-7.061 13.372-7.616 15.045-17.546 14.973-24.208z" opacity=".8"/>
</svg>
