<svg xmlns="http://www.w3.org/2000/svg" width="1096" height="778">
    <path fill="#ECF6FC" fill-rule="evenodd" d="M1091.735 436.54c-18.75-98.905-39.431-108.523-64.151-143.496-47.821-65.751-105.15-113.848-139.966-142.329-34.816-28.482-152.796-85.275-205.283-107.331C629.847 21.328 473.552-2.571 375.576.219 277.599 3.009 120.758 14.862 67.65 106.383 14.543 197.903 0 222.253 0 365.376c0 143.122 79.095 267.088 100.309 303.325 21.214 36.237 46.655 100.314 149.297 108.497 102.642 8.183 220.785-48.403 267.102-68.832 32.549-14.858 122.17-25.964 171.459-17.499 49.288 8.464 98.948 56.907 206.45 66.498 107.501 9.591 166.792-96.83 166.792-96.83s49.076-125.089 30.326-223.995z" opacity=".8"/>
</svg>
