<svg xmlns="http://www.w3.org/2000/svg" width="568" height="863">
    <path fill="#ECF6FC" fill-rule="evenodd" d="M505.32 412.864c-4.869-44.039 21.247-191.671 34.01-236.138 12.763-44.467-12.107-92.42-12.107-92.42S496.45 13.298 387.756 1.967C279.061-9.363 207.888 50.893 184.352 80.32c-11.359 14.202-71.123 111.088-109.88 215.806C32.918 408.4 25.236 461.937 12.615 528.482-.005 595.026-14.636 685.38 32.64 766.328c47.275 80.948 118.245 86.601 217.153 95.344 98.907 8.743 256.638-68.51 293.199-139.332 36.561-70.822 24.213-105.409 14.543-134.036-9.669-28.626-47.345-131.402-52.215-175.44z" opacity=".8"/>
</svg>
