<svg xmlns="http://www.w3.org/2000/svg" width="24.9" height="24.9">
    <path fill="#3C94DE" fill-rule="evenodd" stroke="#3C94DE" stroke-width=".6" d="M12.3 23.996C5.85 23.996.603 18.75.603 12.3.603 5.85 5.85.603 12.3.603c6.449 0 11.696 5.247 11.696 11.697 0 6.45-5.247 11.696-11.696 11.696zm0-22.054C6.588 1.942 1.942 6.588 1.942 12.3c0 5.712 4.646 10.358 10.358 10.358 5.711 0 10.358-4.646 10.358-10.358 0-5.712-4.647-10.358-10.358-10.358zm2.709 5.349h-1.586c-.561 0-1.016.456-1.016 1.016v1.784h2.286a.67.67 0 0 1 0 1.339h-2.286v6.195a.669.669 0 1 1-1.339 0V11.43H9.591a.67.67 0 0 1 0-1.339h1.477V8.307a2.358 2.358 0 0 1 2.355-2.354h1.586a.669.669 0 1 1 0 1.338z"/>
</svg>
