<svg xmlns="http://www.w3.org/2000/svg" width="609" height="163.241">
    <switch>
        <g>
            <g fill="#0872B9">
                <path d="M307.168 80.109c1.28 0 2.378.443 3.299 1.331.883.918 1.329 2.017 1.329 3.295v42.22c-.036 3.742-.772 7.299-2.217 10.678a28.292 28.292 0 0 1-5.903 8.758 26.585 26.585 0 0 1-8.612 5.855 26.306 26.306 0 0 1-10.529 2.164c-8.071 0-15.253-2.248-21.552-6.738-1.017-.756-1.641-1.758-1.868-3.002-.199-1.248.08-2.398.835-3.445.721-1.02 1.705-1.645 2.953-1.873 1.279-.195 2.426.086 3.443.84 4.69 3.344 10.088 5.018 16.189 5.018 4.987 0 9.233-1.82 12.744-5.459 3.543-3.611 5.313-7.977 5.313-13.094v-.689c-5.183 4.398-11.201 6.598-18.058 6.598-3.708 0-7.249-.688-10.627-2.07a26.166 26.166 0 0 1-8.661-5.607c-2.528-2.428-4.479-5.215-5.856-8.363a24.848 24.848 0 0 1-2.165-10.191c0-3.539.723-6.934 2.165-10.182 1.377-3.148 3.328-5.936 5.856-8.365 2.492-2.428 5.378-4.296 8.661-5.608 3.378-1.379 6.919-2.068 10.627-2.068 6.856 0 12.875 2.199 18.058 6.594v-1.969c0-1.278.443-2.377 1.33-3.295.916-.89 2.001-1.333 3.246-1.333m-22.633 43.252c4.987 0 9.233-1.674 12.744-5.02 3.543-3.311 5.313-7.314 5.313-12.01 0-4.688-1.771-8.689-5.313-12.004-3.511-3.346-7.757-5.016-12.744-5.016s-9.25 1.67-12.793 5.016c-3.543 3.314-5.315 7.316-5.315 12.004 0 4.695 1.771 8.699 5.315 12.01 3.543 3.347 7.805 5.02 12.793 5.02M344.938 80.011c7.512 0 13.944 2.725 19.292 8.168 5.343 5.41 8.019 11.955 8.019 19.631 0 7.648-2.676 14.172-8.019 19.584-5.348 5.414-11.78 8.119-19.292 8.119-7.545 0-13.974-2.705-19.287-8.119-5.347-5.412-8.02-11.936-8.02-19.584 0-7.676 2.673-14.221 8.02-19.631 5.314-5.443 11.743-8.168 19.287-8.168m0 46.303c4.986 0 9.252-1.803 12.794-5.414 3.543-3.641 5.312-8 5.312-13.09 0-5.115-1.769-9.494-5.312-13.135-3.542-3.609-7.808-5.414-12.794-5.414-4.984 0-9.249 1.805-12.791 5.414-3.544 3.641-5.316 8.02-5.316 13.135 0 5.09 1.772 9.449 5.316 13.09 3.542 3.612 7.807 5.414 12.791 5.414M403.496 80.011c7.508 0 13.94 2.725 19.285 8.168 5.348 5.41 8.021 11.955 8.021 19.631 0 7.648-2.674 14.172-8.021 19.584-5.345 5.414-11.777 8.119-19.285 8.119-7.549 0-13.975-2.705-19.29-8.119-5.345-5.412-8.021-11.936-8.021-19.584 0-7.676 2.677-14.221 8.021-19.631 5.315-5.443 11.741-8.168 19.29-8.168m0 46.303c4.982 0 9.247-1.803 12.79-5.414 3.543-3.641 5.312-8 5.312-13.09 0-5.115-1.769-9.494-5.312-13.135-3.543-3.609-7.808-5.414-12.79-5.414-4.988 0-9.253 1.805-12.795 5.414-3.545 3.641-5.315 8.02-5.315 13.135 0 5.09 1.771 9.449 5.315 13.09 3.542 3.612 7.807 5.414 12.795 5.414M465.494 80.011c7.513 0 13.941 2.725 19.287 8.168 5.314 5.41 7.973 11.955 7.973 19.631 0 7.648-2.658 14.172-7.973 19.584-5.346 5.414-11.774 8.119-19.287 8.119-6.892 0-12.926-2.328-18.108-6.984v2.408c0 1.281-.443 2.365-1.327 3.25-.921.885-2.001 1.326-3.251 1.326-1.278 0-2.378-.441-3.296-1.326-.887-.885-1.327-1.969-1.327-3.25V65.839c0-1.279.44-2.361 1.327-3.246.918-.917 2.018-1.378 3.296-1.378 1.25 0 2.33.462 3.251 1.378.884.885 1.327 1.967 1.327 3.246v21.159c5.182-4.659 11.217-6.987 18.108-6.987m0 46.303c4.984 0 9.249-1.803 12.792-5.414 3.509-3.641 5.267-8 5.267-13.09 0-5.115-1.758-9.494-5.267-13.135-3.543-3.609-7.808-5.414-12.792-5.414-4.986 0-9.251 1.805-12.793 5.414-3.543 3.641-5.315 8.02-5.315 13.135 0 5.09 1.772 9.449 5.315 13.09 3.542 3.612 7.807 5.414 12.793 5.414M524.49 80.011c7.51 0 13.944 2.725 19.287 8.168 5.348 5.41 8.023 11.955 8.023 19.631 0 7.648-2.676 14.172-8.023 19.584-5.343 5.414-11.777 8.119-19.287 8.119-7.545 0-13.977-2.705-19.288-8.119-5.347-5.412-8.019-11.936-8.019-19.584 0-7.676 2.672-14.221 8.019-19.631 5.312-5.443 11.743-8.168 19.288-8.168m0 46.303c4.987 0 9.249-1.803 12.795-5.414 3.542-3.641 5.312-8 5.312-13.09 0-5.115-1.77-9.494-5.312-13.135-3.546-3.609-7.808-5.414-12.795-5.414-4.989 0-9.251 1.805-12.79 5.414-3.546 3.641-5.318 8.02-5.318 13.135 0 5.09 1.772 9.449 5.318 13.09 3.539 3.612 7.801 5.414 12.79 5.414M599.824 128.035c.787.984 1.112 2.117.983 3.395-.133 1.246-.689 2.264-1.674 3.053a4.492 4.492 0 0 1-2.9 1.031c-1.478 0-2.676-.574-3.592-1.721l-15.012-18.699-15.007 18.699c-.918 1.146-2.115 1.721-3.59 1.721-1.084 0-2.034-.342-2.854-1.031-1.02-.789-1.596-1.807-1.725-3.053-.13-1.277.199-2.41.987-3.395l16.286-20.273-16.286-20.273c-.788-.982-1.117-2.096-.987-3.346.129-1.278.705-2.311 1.725-3.099.984-.819 2.098-1.147 3.344-.984 1.279.133 2.314.691 3.1 1.673l15.007 18.699 15.012-18.699c.782-.982 1.818-1.541 3.101-1.673 1.242-.163 2.375.166 3.392.984.984.788 1.541 1.821 1.674 3.099.129 1.25-.196 2.363-.983 3.346l-16.286 20.273 16.285 20.273z"/>
            </g>
            <path fill="#0872B9" d="M55.527 63.536h117.088v94.72H55.527z"/>
            <path fill="#28AAE1"
                  d="M172.616 63.532H55.527c0-32.334 26.21-58.546 58.544-58.546s58.545 26.211 58.545 58.546M55.527 63.532v94.724c-26.159 0-47.362-21.203-47.362-47.359 0-26.163 21.204-47.365 47.362-47.365M172.616 63.532v94.724c26.159 0 47.362-21.203 47.362-47.359 0-26.163-21.204-47.365-47.362-47.365"/>
        </g>
    </switch>
</svg>
