<svg xmlns="http://www.w3.org/2000/svg" width="24.9" height="24.9">
    <path fill="#3C94DE" fill-rule="evenodd" stroke="#3C94DE" stroke-width=".6" d="M12.3 23.989C5.855 23.989.611 18.745.611 12.3S5.855.611 12.3.611 23.989 5.855 23.989 12.3 18.745 23.989 12.3 23.989zm0-22.04C6.592 1.949 1.949 6.592 1.949 12.3c0 5.707 4.643 10.351 10.351 10.351 5.708 0 10.351-4.644 10.351-10.351 0-5.708-4.643-10.351-10.351-10.351zm0 16.096A5.752 5.752 0 0 1 6.554 12.3 5.752 5.752 0 0 1 12.3 6.555c1.45 0 2.834.541 3.898 1.524a.669.669 0 0 1-.907.982A4.398 4.398 0 0 0 12.3 7.892 4.412 4.412 0 0 0 7.892 12.3a4.412 4.412 0 0 0 4.408 4.408 4.414 4.414 0 0 0 4.357-3.739h-3.855a.669.669 0 1 1 0-1.337h4.575c.369 0 .669.299.669.668a5.752 5.752 0 0 1-5.746 5.745z"/>
</svg>
