<svg xmlns="http://www.w3.org/2000/svg" width="24.9" height="24.9">
    <path fill="#3C94DE" fill-rule="evenodd" stroke="#3C94DE" stroke-width=".6" d="M12.3 23.996C5.85 23.996.603 18.75.603 12.3.603 5.85 5.85.603 12.3.603c6.449 0 11.696 5.247 11.696 11.697 0 6.45-5.247 11.696-11.696 11.696zm0-22.054C6.588 1.942 1.942 6.588 1.942 12.3c0 5.712 4.646 10.358 10.358 10.358 5.711 0 10.358-4.646 10.358-10.358 0-5.712-4.647-10.358-10.358-10.358zm.958 13.53h1.347a.669.669 0 1 1 0 1.339h-1.347a3.937 3.937 0 0 1-3.932-3.932v-4.42a.668.668 0 1 1 1.338 0v.68h3.941a.67.67 0 0 1 0 1.338h-3.941v2.402a2.597 2.597 0 0 0 2.594 2.593z"/>
</svg>
